<?xml version="1.0" encoding="utf-8"?>
<!-- Generator: Adobe Illustrator 25.4.1, SVG Export Plug-In . SVG Version: 6.00 Build 0)  -->
<svg version="1.1" id="Layer_1" xmlns="http://www.w3.org/2000/svg" xmlns:xlink="http://www.w3.org/1999/xlink" x="0px" y="0px"
	 viewBox="0 0 396.7 396.3" style="enable-background:new 0 0 396.7 396.3;" xml:space="preserve">
<style type="text/css">
	.st0{fill:#FFFFFF;}
	.st1{fill:#65BC28;}
	.st2{fill:#DEE4E5;}
	.st3{fill:#007736;}
</style>
<g>
	<path class="st0" d="M9.3,376.6c4.4,0,6.7,2.5,6.7,2.5l-1.3,2c0,0-2.1-2.1-5.3-2.1c-4.1,0-6.8,3.2-6.8,7.3c0,4.1,2.7,7.5,6.8,7.5
		c3.5,0,5.7-2.5,5.7-2.5l1.4,1.9c0,0-2.5,3-7.1,3c-5.5,0-9.4-4.4-9.4-9.9C0,380.8,4,376.6,9.3,376.6z"/>
	<path class="st0" d="M25.1,382c3.7,0,5.7,2.9,5.7,6.4c0,0.4-0.1,1.1-0.1,1.1h-9.6c0.1,3,2.2,4.5,4.5,4.5c2.3,0,3.9-1.6,3.9-1.6
		l1,1.9c0,0-1.9,1.9-5.1,1.9c-4.1,0-7-3.1-7-7.1C18.6,384.8,21.4,382,25.1,382z M28.2,387.6c-0.1-2.3-1.5-3.5-3.2-3.5
		c-1.9,0-3.5,1.2-3.8,3.5H28.2z"/>
	<path class="st0" d="M33.9,382.3h2.4v1.8c0,0.5-0.1,1-0.1,1h0.1c0.5-1.2,2.1-3.1,4.9-3.1c3.1,0,4.5,1.8,4.5,5.2v8.7h-2.5v-8.1
		c0-1.9-0.4-3.4-2.5-3.4c-2,0-3.6,1.4-4.2,3.3c-0.2,0.5-0.2,1.2-0.2,1.8v6.4h-2.5V382.3z"/>
	<path class="st0" d="M50.1,384.6h-1.7v-2.1h1.8v-3.9h2.4v3.9h3.2v2.1h-3.2v6.1c0,2.7,1.8,3.1,2.8,3.1c0.4,0,0.6-0.1,0.6-0.1v2.3
		c0,0-0.4,0.1-0.9,0.1c-1.7,0-5-0.5-5-5.1V384.6z"/>
	<path class="st0" d="M58.8,382.3h2.4v2.4c0,0.6-0.1,1-0.1,1h0.1c0.6-2,2.1-3.6,4.2-3.6c0.3,0,0.6,0.1,0.6,0.1v2.6
		c0,0-0.3-0.1-0.7-0.1c-1.6,0-3.1,1.2-3.7,3.2c-0.2,0.8-0.3,1.6-0.3,2.5v5.6h-2.5V382.3z"/>
	<path class="st0" d="M74.6,382c3.9,0,7.1,3,7.1,7.1c0,4.2-3.2,7.2-7.1,7.2c-3.9,0-7.1-3-7.1-7.2C67.5,385,70.7,382,74.6,382z
		 M74.6,394c2.5,0,4.5-2,4.5-4.9c0-2.8-2-4.9-4.5-4.9c-2.5,0-4.5,2-4.5,4.9C70.1,392,72.1,394,74.6,394z"/>
	<path class="st0" d="M96.4,382c3,0,4,2.2,4,2.2h0.1c0,0-0.1-0.4-0.1-0.9v-6.3h2.5v19h-2.4v-1.3c0-0.5,0-0.9,0-0.9h-0.1
		c0,0-1.1,2.5-4.3,2.5c-3.6,0-5.8-2.9-5.8-7.1C90.5,384.8,92.9,382,96.4,382z M96.8,394c1.9,0,3.8-1.4,3.8-4.9
		c0-2.4-1.2-4.9-3.7-4.9c-2.1,0-3.8,1.8-3.8,4.9C93,392.1,94.6,394,96.8,394z"/>
	<path class="st0" d="M112.6,382c3.7,0,5.7,2.9,5.7,6.4c0,0.4-0.1,1.1-0.1,1.1h-9.6c0.1,3,2.2,4.5,4.5,4.5c2.3,0,3.9-1.6,3.9-1.6
		l1,1.9c0,0-1.9,1.9-5.1,1.9c-4.1,0-7-3.1-7-7.1C106,384.8,108.9,382,112.6,382z M115.7,387.6c-0.1-2.3-1.5-3.5-3.2-3.5
		c-1.9,0-3.5,1.2-3.8,3.5H115.7z"/>
	<path class="st0" d="M128.5,376.9h10.1v2.3h-7.5v6.3h6.4v2.3h-6.4v8.1h-2.6V376.9z"/>
	<path class="st0" d="M147.7,382c3.9,0,7.1,3,7.1,7.1c0,4.2-3.2,7.2-7.1,7.2c-3.9,0-7.1-3-7.1-7.2C140.6,385,143.7,382,147.7,382z
		 M147.7,394c2.5,0,4.5-2,4.5-4.9c0-2.8-2-4.9-4.5-4.9c-2.5,0-4.5,2-4.5,4.9C143.1,392,145.2,394,147.7,394z"/>
	<path class="st0" d="M157.7,382.3h2.4v2.4c0,0.6-0.1,1-0.1,1h0.1c0.6-2,2.1-3.6,4.2-3.6c0.3,0,0.6,0.1,0.6,0.1v2.6
		c0,0-0.3-0.1-0.7-0.1c-1.6,0-3.1,1.2-3.7,3.2c-0.2,0.8-0.3,1.6-0.3,2.5v5.6h-2.5V382.3z"/>
	<path class="st0" d="M167.5,382.3h2.4v1.8c0,0.5-0.1,1-0.1,1h0.1c0.6-1.6,2.5-3.1,4.5-3.1c2.2,0,3.5,1.1,3.9,3.1h0.1
		c0.7-1.6,2.5-3.1,4.7-3.1c3,0,4.3,1.8,4.3,5.2v8.7h-2.5v-8.2c0-1.9-0.4-3.4-2.3-3.4c-1.8,0-3.2,1.6-3.7,3.5
		c-0.1,0.6-0.2,1.2-0.2,1.9v6.2h-2.5v-8.2c0-1.8-0.3-3.4-2.3-3.4c-1.9,0-3.3,1.6-3.8,3.6c-0.1,0.5-0.2,1.2-0.2,1.8v6.2h-2.5V382.3z"
		/>
	<path class="st0" d="M198,387.5h0.6v-0.2c0-2.2-1.2-3-2.9-3c-2,0-3.7,1.3-3.7,1.3l-1-1.9c0,0,1.9-1.6,4.9-1.6
		c3.3,0,5.2,1.9,5.2,5.3v8.6h-2.3v-1.3c0-0.6,0.1-1.1,0.1-1.1h-0.1c0,0-1.1,2.7-4.2,2.7c-2.3,0-4.5-1.4-4.5-4.2
		C190.1,387.6,195.8,387.5,198,387.5z M195.1,394.2c2.1,0,3.5-2.3,3.5-4.3v-0.4H198c-1.9,0-5.3,0.1-5.3,2.6
		C192.7,393.1,193.5,394.2,195.1,394.2z"/>
	<path class="st0" d="M211,382c3.3,0,4.9,2,4.9,2l-1.2,1.8c0,0-1.4-1.6-3.6-1.6c-2.6,0-4.6,2-4.6,4.9c0,2.8,1.9,4.9,4.6,4.9
		c2.4,0,4.1-1.8,4.1-1.8l1,1.9c0,0-1.8,2.2-5.2,2.2c-4.1,0-7-3-7-7.1C203.9,385.1,206.9,382,211,382z"/>
	<path class="st0" d="M219.1,376.9h2.5v2.7h-2.5V376.9z M219.1,382.3h2.5V396h-2.5V382.3z"/>
	<path class="st0" d="M231.7,382c3.9,0,7.1,3,7.1,7.1c0,4.2-3.2,7.2-7.1,7.2c-3.9,0-7.1-3-7.1-7.2C224.6,385,227.7,382,231.7,382z
		 M231.7,394c2.5,0,4.5-2,4.5-4.9c0-2.8-2-4.9-4.5-4.9c-2.5,0-4.5,2-4.5,4.9C227.1,392,229.2,394,231.7,394z M232.4,376.9h2.7
		l-2.5,3.4h-2.1L232.4,376.9z"/>
	<path class="st0" d="M241.7,382.3h2.4v1.8c0,0.5-0.1,1-0.1,1h0.1c0.5-1.2,2.1-3.1,4.9-3.1c3.1,0,4.5,1.8,4.5,5.2v8.7h-2.5v-8.1
		c0-1.9-0.4-3.4-2.5-3.4c-2,0-3.6,1.4-4.2,3.3c-0.2,0.5-0.2,1.2-0.2,1.8v6.4h-2.5V382.3z"/>
	<path class="st0" d="M264.6,376.9h6.7c3.4,0,5.8,2.3,5.8,6c0,3.6-2.4,6-5.8,6h-4.1v7h-2.6V376.9z M270.9,386.6
		c2.2,0,3.6-1.4,3.6-3.7c0-2.3-1.3-3.6-3.5-3.6h-3.7v7.4H270.9z"/>
	<path class="st0" d="M279.8,382.3h2.4v2.4c0,0.6-0.1,1-0.1,1h0.1c0.6-2,2.1-3.6,4.2-3.6c0.3,0,0.6,0.1,0.6,0.1v2.6
		c0,0-0.3-0.1-0.7-0.1c-1.6,0-3.1,1.2-3.7,3.2c-0.2,0.8-0.3,1.6-0.3,2.5v5.6h-2.5V382.3z"/>
	<path class="st0" d="M295.6,382c3.9,0,7.1,3,7.1,7.1c0,4.2-3.2,7.2-7.1,7.2c-3.9,0-7.1-3-7.1-7.2C288.5,385,291.7,382,295.6,382z
		 M295.6,394c2.5,0,4.5-2,4.5-4.9c0-2.8-2-4.9-4.5-4.9c-2.5,0-4.5,2-4.5,4.9C291.1,392,293.1,394,295.6,394z"/>
	<path class="st0" d="M306.3,384.6h-1.6v-2.1h1.6v-0.6c0-4.5,3.3-5.1,4.9-5.1c0.6,0,1,0.1,1,0.1v2.2c0,0-0.3-0.1-0.6-0.1
		c-1,0-2.8,0.3-2.8,2.9v0.6h3.1v2.1h-3.1V396h-2.5V384.6z"/>
	<path class="st0" d="M320,382c3.7,0,5.7,2.9,5.7,6.4c0,0.4-0.1,1.1-0.1,1.1H316c0.1,3,2.2,4.5,4.5,4.5c2.3,0,3.9-1.6,3.9-1.6l1,1.9
		c0,0-1.9,1.9-5.1,1.9c-4.1,0-7-3.1-7-7.1C313.4,384.8,316.2,382,320,382z M323.1,387.6c-0.1-2.3-1.5-3.5-3.2-3.5
		c-1.9,0-3.5,1.2-3.8,3.5H323.1z"/>
	<path class="st0" d="M328.9,392.4c0,0,1.5,1.6,3.8,1.6c1.1,0,2.2-0.6,2.2-1.7c0-2.5-6.8-2-6.8-6.4c0-2.5,2.1-3.9,4.8-3.9
		c2.9,0,4.2,1.5,4.2,1.5l-1,2c0,0-1.2-1.2-3.2-1.2c-1.1,0-2.2,0.5-2.2,1.7c0,2.5,6.8,1.9,6.8,6.4c0,2.3-1.9,4-4.8,4c-3.2,0-5-2-5-2
		L328.9,392.4z"/>
	<path class="st0" d="M340.3,376.9h2.5v2.7h-2.5V376.9z M340.3,382.3h2.5V396h-2.5V382.3z"/>
	<path class="st0" d="M352.9,382c3.9,0,7.1,3,7.1,7.1c0,4.2-3.2,7.2-7.1,7.2c-3.9,0-7.1-3-7.1-7.2C345.8,385,349,382,352.9,382z
		 M352.9,394c2.5,0,4.5-2,4.5-4.9c0-2.8-2-4.9-4.5-4.9c-2.5,0-4.5,2-4.5,4.9C348.4,392,350.5,394,352.9,394z"/>
	<path class="st0" d="M363,382.3h2.4v1.8c0,0.5-0.1,1-0.1,1h0.1c0.5-1.2,2.1-3.1,4.9-3.1c3.1,0,4.5,1.8,4.5,5.2v8.7h-2.5v-8.1
		c0-1.9-0.4-3.4-2.5-3.4c-2,0-3.6,1.4-4.2,3.3c-0.2,0.5-0.2,1.2-0.2,1.8v6.4H363V382.3z"/>
	<path class="st0" d="M385.5,387.5h0.6v-0.2c0-2.2-1.2-3-2.9-3c-2,0-3.7,1.3-3.7,1.3l-1-1.9c0,0,1.9-1.6,4.9-1.6
		c3.3,0,5.2,1.9,5.2,5.3v8.6h-2.3v-1.3c0-0.6,0-1.1,0-1.1h0c0,0-1.1,2.7-4.2,2.7c-2.3,0-4.5-1.4-4.5-4.2
		C377.6,387.6,383.3,387.5,385.5,387.5z M382.6,394.2c2.1,0,3.5-2.3,3.5-4.3v-0.4h-0.6c-1.9,0-5.3,0.1-5.3,2.6
		C380.1,393.1,381,394.2,382.6,394.2z"/>
	<path class="st0" d="M392.2,376.9h2.5v14.9c0,1.6,0.6,1.9,1.4,1.9c0.2,0,0.4,0,0.4,0v2.3c0,0-0.4,0.1-0.8,0.1
		c-1.4,0-3.5-0.4-3.5-3.8V376.9z"/>
</g>
<path class="st1" d="M31.4,319.4h2.3v-0.5c0-9.5-3.4-12.9-11.5-12.9c-2.5,0-8.5,0.6-8.5,4.2v3.1H4.2v-5.3c0-8.9,13-10.2,18-10.2
	c16.9,0,21.4,9.2,21.4,21.2v23c0,1.6,0.8,2.4,2.3,2.4h4.2v8.9h-9.4c-4.6,0-6.5-2.4-6.5-6.2c0-1.8,0.2-3.2,0.2-3.2h-0.2
	c0,0-4.1,10.7-16.6,10.7c-9,0-17.7-5.7-17.7-16.5C0,320.4,22.6,319.4,31.4,319.4z M19.9,346c8.4,0,13.9-9.2,13.9-17.2v-1.8h-2.6
	c-7.5,0-21.1,0.4-21.1,10.4C10.1,341.7,13.3,346,19.9,346z"/>
<path class="st1" d="M60.1,337.9c0,0,6.2,8,15.7,8c4.8,0,9.1-2.2,9.1-6.9c0-9.7-28.4-8.7-28.4-26.1c0-10.4,8.7-15.2,19.4-15.2
	c6.3,0,17.1,2.2,17.1,10.5v5.1h-9v-2.7c0-3.2-4.6-4.6-7.8-4.6c-5.9,0-9.7,2.1-9.7,6.4c0,10.3,28.4,8,28.4,26.1
	c0,9.6-8.2,15.8-19.1,15.8c-13.9,0-20.8-9.5-20.8-9.5L60.1,337.9z"/>
<path class="st0" d="M107.7,310.2c0-1.6-0.8-2.4-2.3-2.4h-4.2v-8.9h9.6c4.5,0,6.6,2,6.6,6v2c0,1.7-0.1,3.1-0.1,3.1h0.2
	c2.5-6.3,9.7-12.4,17.8-12.4c8.9,0,13.9,4.2,15.6,12.3h0.2c2.9-6.5,10.1-12.3,18.5-12.3c11.7,0,17.2,6.9,17.2,20.7v23.4
	c0,1.6,0.8,2.4,2.3,2.4h4.2v8.9h-9.9c-4.6,0-6.6-2-6.6-6.8v-25.6c0-7.6-1.4-13.6-9.2-13.6c-7.2,0-12.8,6.5-14.6,13.9
	c-0.5,2.2-0.8,4.6-0.8,7.4V353h-10v-32.4c0-7.1-1-13.6-9-13.6c-7.6,0-13,6.6-14.9,14.3c-0.5,2.1-0.7,4.5-0.7,6.9V353h-10V310.2z"/>
<path class="st0" d="M225.2,297.7c14.6,0,22.4,11.3,22.4,25.3c0,1.4-0.3,4.3-0.3,4.3h-38c0.6,11.5,8.6,18.1,17.9,18.1
	c9,0,15.2-6.3,15.2-6.3l4.3,7.4c0,0-7.7,7.9-20.1,7.9c-16.5,0-27.7-12.3-27.7-28.3C199.1,308.8,210.4,297.7,225.2,297.7z
	 M237.4,319.7c-0.3-9-5.8-13.8-12.2-13.8c-7.6,0-13.8,4.8-15.3,13.8H237.4z"/>
<path class="st0" d="M279.6,297.7c12,0,16.1,8.3,16.1,8.3h0.2c0,0-0.2-1.6-0.2-3.6v-13.6c0-1.6-0.8-2.4-2.3-2.4h-4.2v-8.9h9.9
	c4.6,0,6.6,2,6.6,6.8v57.4c0,1.6,0.8,2.4,2.3,2.4h4.2v8.9h-9.6c-4.5,0-6.4-2.1-6.4-5.8c0-1.6,0.1-2.8,0.1-2.8H296
	c0,0-4.3,9.8-17.1,9.8c-14.1,0-23-11.5-23-28.3C256,308.8,265.8,297.7,279.6,297.7z M295.9,325.9c0-9.6-4.8-19.2-14.8-19.2
	c-8.1,0-14.9,7.1-14.9,19.4c0,11.8,6.1,19.3,14.7,19.3C288.6,345.3,295.9,339.7,295.9,325.9z"/>
<path class="st0" d="M323.7,310.2c0-1.6-0.8-2.4-2.3-2.4h-4.2v-8.9h9.8c4.6,0,6.6,2,6.6,6.8v36c0,1.6,0.8,2.4,2.3,2.4h4.2v8.9h-9.8
	c-4.6,0-6.6-2-6.6-6.8V310.2z M323.9,277.6h9v10.8h-9V277.6z"/>
<path class="st0" d="M378,319.4h2.3v-0.5c0-9.5-3.4-12.9-11.5-12.9c-2.5,0-8.5,0.6-8.5,4.2v3.1h-9.4v-5.3c0-8.9,13-10.2,18-10.2
	c16.9,0,21.4,9.2,21.4,21.2v23c0,1.6,0.8,2.4,2.3,2.4h4.2v8.9h-9.4c-4.6,0-6.5-2.4-6.5-6.2c0-1.8,0.2-3.2,0.2-3.2h-0.2
	c0,0-4.1,10.7-16.6,10.7c-9,0-17.7-5.7-17.7-16.5C346.6,320.4,369.2,319.4,378,319.4z M366.4,346c8.4,0,13.9-9.2,13.9-17.2v-1.8
	h-2.6c-7.5,0-21.1,0.4-21.1,10.4C356.7,341.7,359.9,346,366.4,346z"/>
<path id="brillo" class="st2" d="M198.4,249.7c-86.6-64.9-120-151.2-127.6-222c82-36.8,172.6-36.8,255.1,0
	C314,135.7,254.1,208.2,198.4,249.7z"/>
<path id="escudo" class="st3" d="M198.4,233.1C124.2,177.5,91.3,95.3,85,35.8c68.8-31,156.9-31.2,226.8,0
	C301.4,129.6,243.3,199.7,198.4,233.1z"/>
<path id="infinito" class="st1" d="M137,66.6c-19.6,33.9-8,77.2,26,96.8c33.9,19.6,77.2,8,96.8-25.9c10.1-17.5,11.9-37.4,6.6-55.4
	c-5.6-3.4-11.4-6.5-17.6-9.1c0.8-6.7,1.1-13.3,1-19.8c-4.6-4.8-9.9-9-15.9-12.5C199.9,21.1,156.5,32.7,137,66.6z"/>
<path id="corazon" class="st0" d="M199.1,161.2c-33.7-25.8-46.7-60.1-49.6-88.2c31.9-14.6,67.2-14.6,99.3,0
	C244.1,115.9,220.8,144.7,199.1,161.2z"/>
<polygon id="play" class="st3" points="184.2,123.8 184.2,81.3 226.7,102.5 "/>
</svg>
